<?xml version="1.0"?>
<svg xmlns="http://www.w3.org/2000/svg" id="Outline" viewBox="0 0 512 512" width="512" height="512"><path d="M440,176a24.027,24.027,0,0,0,24-24V100.944l11.578-5.789a8,8,0,1,0-7.156-14.31l-16,8A8,8,0,0,0,448,96v33.376A24,24,0,1,0,440,176Zm0-32a8,8,0,1,1-8,8A8.009,8.009,0,0,1,440,144Z"/><path d="M88,416a8,8,0,0,0-8,8v25.376A24,24,0,1,0,96,472V424A8,8,0,0,0,88,416ZM72,480a8,8,0,1,1,8-8A8.009,8.009,0,0,1,72,480Z"/><path d="M474.53,416.411l-44.2-14.736-8.572-25.713c2.078-4.307,4-8.682,5.7-13.05a184.2,184.2,0,0,0-40.78-196.45,185.788,185.788,0,0,0-29.619-24.278,7.95,7.95,0,0,0,1.6-1.746l15.113-22.669,22.669-15.113a8,8,0,0,0,0-13.312L373.769,74.231,358.656,51.562a8,8,0,0,0-13.312,0L330.231,74.231,307.562,89.344a8,8,0,0,0,0,13.312l22.669,15.113,9.542,14.313A182.754,182.754,0,0,0,264,112.184V94.624a24,24,0,0,0,0-45.248V24a8,8,0,0,0-16,0V49.376a24,24,0,0,0,0,45.248v17.562A184.358,184.358,0,0,0,102.343,194.8l-7.188-14.375a8,8,0,0,0-14.31,0L66.037,210.037,36.422,224.845a8,8,0,0,0,0,14.31l29.615,14.808,7.849,15.7A185.478,185.478,0,0,0,72,296,183.964,183.964,0,0,0,254.208,479.989c.6.011,1.195.011,1.792.011s1.195,0,1.723-.01A184.381,184.381,0,0,0,369.4,440.9l16.276,5.426,14.736,44.2a8,8,0,0,0,15.178,0l14.736-44.2,44.2-14.736a8,8,0,0,0,0-15.178ZM326.422,96l14.016-9.344a8.02,8.02,0,0,0,2.218-2.218L352,70.422l9.344,14.016a8.02,8.02,0,0,0,2.218,2.218L377.578,96l-14.016,9.344a8.02,8.02,0,0,0-2.218,2.218L352,121.578l-9.344-14.016a8.02,8.02,0,0,0-2.218-2.218Zm59.253,305.675-22.3,7.433A204.848,204.848,0,0,0,381.257,368H396.9ZM414.431,352h-28.8a244.1,244.1,0,0,0,6.239-48h31.946A166.726,166.726,0,0,1,414.431,352ZM136.14,288a226.724,226.724,0,0,1,6.719-48h44.382a469.519,469.519,0,0,0-3.174,48Zm67.205-48H248v48H200.069A449.313,449.313,0,0,1,203.345,240ZM264,288V240h44.655a449.313,449.313,0,0,1,3.276,48Zm47.931,16a449.313,449.313,0,0,1-3.276,48H264V304ZM264,224V176h30.334a286.543,286.543,0,0,1,12,48Zm0-64V130.03c8.28,4.146,16.538,14.521,23.811,29.97Zm41.319,0a133.536,133.536,0,0,0-12.789-24.04A112.119,112.119,0,0,1,326.37,160ZM248,160H224.189c7.273-15.449,15.531-25.824,23.811-29.97Zm-41.319,0H185.63a112.119,112.119,0,0,1,33.84-24.04A133.536,133.536,0,0,0,206.681,160ZM248,176v48H205.671a286.543,286.543,0,0,1,12-48Zm0,128v48H203.345a449.313,449.313,0,0,1-3.276-48Zm0,64v48H217.666a286.568,286.568,0,0,1-12-48Zm0,64v29.971c-8.28-4.147-16.538-14.522-23.811-29.971Zm-41.319,0a133.536,133.536,0,0,0,12.789,24.04A112.119,112.119,0,0,1,185.63,432ZM264,461.971V432h23.811C280.538,447.449,272.28,457.824,264,461.971ZM264,416V368h42.329a286.568,286.568,0,0,1-12,48Zm58.531-48h41.88A179.583,179.583,0,0,1,339.9,416H311.242A315.846,315.846,0,0,0,322.531,368Zm2.228-16a469.519,469.519,0,0,0,3.174-48H375.86a226.724,226.724,0,0,1-6.719,48ZM423.8,288H391.867a244.1,244.1,0,0,0-6.239-48h28.7A166.287,166.287,0,0,1,423.8,288Zm-47.944,0H327.933a469.519,469.519,0,0,0-3.174-48h44.382A226.724,226.724,0,0,1,375.86,288Zm-53.329-64a315.846,315.846,0,0,0-11.289-48H339.9a179.583,179.583,0,0,1,24.514,48Zm25.185-64q-4.217-5.219-8.7-9.9a168.935,168.935,0,0,1,15.312,9.9Zm-183.432,0h-6.826A168.878,168.878,0,0,1,173.2,149.877Q168.607,154.657,164.284,160Zm36.474,16a315.846,315.846,0,0,0-11.289,48h-41.88A179.583,179.583,0,0,1,172.1,176ZM120.133,288H88.2v-.014a7.992,7.992,0,0,0,6.958-4.408l14.808-29.615,14.986-7.493A245.694,245.694,0,0,0,120.133,288ZM97.569,352a166.727,166.727,0,0,1-9.382-48h31.946a244.1,244.1,0,0,0,6.239,48Zm38.571-48h47.927a469.519,469.519,0,0,0,3.174,48H142.859A226.724,226.724,0,0,1,136.14,304Zm53.329,64a315.846,315.846,0,0,0,11.289,48H172.1a179.583,179.583,0,0,1-24.514-48Zm-25.188,64q4.563,5.646,9.435,10.664A166.481,166.481,0,0,1,157.069,432ZM292.53,456.04A133.536,133.536,0,0,0,305.319,432H326.37A112.119,112.119,0,0,1,292.53,456.04ZM407.681,224H381.257A201.707,201.707,0,0,0,359.2,176H373.27A169.478,169.478,0,0,1,407.681,224ZM256,64a8,8,0,1,1-8,8A8.009,8.009,0,0,1,256,64ZM138.467,176H152.8a200.522,200.522,0,0,0-21.069,44.921l-20.472-10.236A167.9,167.9,0,0,1,138.467,176ZM57.889,232l17.689-8.845a8,8,0,0,0,3.577-3.577L88,201.889l8.845,17.689a8,8,0,0,0,3.577,3.577L118.111,232l-17.689,8.845a8,8,0,0,0-3.577,3.577L88,262.111l-8.845-17.689a8,8,0,0,0-3.577-3.577ZM104.16,368h26.583A201.67,201.67,0,0,0,152.8,416H138.2A167.979,167.979,0,0,1,104.16,368Zm234.559,74.213c2.715-2.822,5.368-5.777,7.94-8.894L350.8,434.7Q344.912,438.717,338.719,442.213Zm82.751-9.8a8,8,0,0,0-5.059,5.059L408,462.7l-8.411-25.232a8,8,0,0,0-5.059-5.059L369.3,424l25.232-8.411a8,8,0,0,0,5.059-5.059L408,385.3l8.411,25.232a8,8,0,0,0,5.059,5.059L446.7,424Z"/></svg>
