<svg id="Capa_1" enable-background="new 0 0 512 512" height="512" viewBox="0 0 512 512" width="512" xmlns="http://www.w3.org/2000/svg"><g id="XMLID_1399_"><g id="XMLID_883_"><path id="XMLID_1179_" d="m266.334 88.249v-78.249c0-5.523-4.478-10-10-10-5.523 0-10 4.477-10 10v78.249c-106.756 5.23-192 93.721-192 201.751 0 111.383 90.617 202 202 202s202-90.617 202-202c-.001-108.029-85.245-196.521-192-201.751zm137.856 95.751h-57.27c-3.898-12.231-8.499-23.711-13.762-34.236-6.53-13.06-13.857-24.182-21.794-33.252 37.742 11.999 70.183 35.993 92.826 67.488zm12.504 192h-64.192c5.719-23.6 9.042-49.333 9.706-76h75.847c-1.49 27.366-9.053 53.141-21.361 76zm-243.781-42.192c-.659-5.483-5.634-9.402-11.121-8.736-5.483.658-9.395 5.638-8.736 11.121 1.651 13.749 4.065 27.096 7.156 39.808h-64.24c-12.309-22.859-19.871-48.634-21.361-76h40.722c5.523 0 10-4.478 10-10s-4.477-10-10-10h-40.721c1.489-27.366 9.052-53.141 21.361-76h64.24c-3.097 12.736-5.515 26.11-7.166 39.888-.657 5.484 3.255 10.462 8.739 11.119 5.485.658 10.462-3.255 11.119-8.738 1.79-14.931 4.465-29.098 7.884-42.269h65.546v76h-40.999c-5.523 0-10 4.478-10 10s4.477 10 10 10h40.999v76h-65.544c-3.415-13.15-6.088-27.291-7.878-42.193zm93.421-149.808v-74.701c24.087 6.216 45.48 34.499 59.383 74.701zm65.422 20c5.992 22.98 9.701 48.806 10.437 76h-75.86v-76zm-85.423-94.697v74.697h-59.525c14.042-40.633 35.687-68.52 59.525-74.697zm0 286.697v74.696c-23.835-6.178-45.481-34.065-59.524-74.696zm20.001 74.701v-74.701h59.383c-13.903 40.202-35.296 68.485-59.383 74.701zm0-94.701v-76h75.86c-.736 27.194-4.445 53.02-10.437 76zm95.874-96c-.664-26.667-3.987-52.4-9.706-76h64.192c12.309 22.859 19.871 48.634 21.361 76zm-160.812-163.519c-4.709 5.34-9.197 11.386-13.408 18.114-8.76 13.994-16.251 30.767-22.186 49.405h-57.326c22.662-31.521 55.138-55.53 92.92-67.519zm-92.92 279.519h57.327c5.939 18.65 13.435 35.432 22.201 49.431 4.207 6.718 8.689 12.755 13.392 18.088-37.782-11.989-70.258-35.998-92.92-67.519zm202.889 67.488c7.938-9.07 15.264-20.192 21.794-33.252 5.263-10.525 9.863-22.005 13.762-34.236h57.27c-22.644 31.495-55.085 55.489-92.826 67.488z"/><path id="XMLID_1206_" d="m50.333 412c-5.523 0-10 4.478-10 10v13.333c0 5.522 4.477 10 10 10s10-4.478 10-10v-13.333c0-5.522-4.477-10-10-10z"/><path id="XMLID_1219_" d="m50.333 478.667c-5.523 0-10 4.478-10 10v13.333c0 5.522 4.477 10 10 10s10-4.478 10-10v-13.333c0-5.522-4.477-10-10-10z"/><path id="XMLID_1221_" d="m90.333 452h-13.333c-5.523 0-10 4.478-10 10s4.477 10 10 10h13.334c5.523 0 10-4.478 10-10s-4.478-10-10.001-10z"/><path id="XMLID_1222_" d="m23.666 452h-13.333c-5.523 0-10 4.478-10 10s4.477 10 10 10h13.333c5.523 0 10-4.478 10-10s-4.477-10-10-10z"/><path id="XMLID_1223_" d="m461.667 54c-5.522 0-10 4.478-10 10v13.333c0 5.522 4.478 10 10 10s10-4.478 10-10v-13.333c0-5.522-4.478-10-10-10z"/><path id="XMLID_1224_" d="m461.667 120.667c-5.522 0-10 4.478-10 10v13.333c0 5.523 4.478 10 10 10s10-4.477 10-10v-13.333c0-5.522-4.478-10-10-10z"/><path id="XMLID_1234_" d="m501.667 94h-13.334c-5.523 0-10 4.478-10 10s4.477 10 10 10h13.334c5.522 0 10-4.478 10-10s-4.478-10-10-10z"/><path id="XMLID_1235_" d="m421.667 114h13.333c5.522 0 10-4.478 10-10s-4.478-10-10-10h-13.333c-5.522 0-10 4.478-10 10s4.477 10 10 10z"/><path id="XMLID_1238_" d="m160.329 280c-2.63 0-5.21 1.069-7.07 2.93-1.86 1.86-2.93 4.44-2.93 7.07s1.07 5.21 2.93 7.069c1.87 1.86 4.44 2.931 7.07 2.931s5.21-1.07 7.07-2.931c1.87-1.859 2.93-4.439 2.93-7.069s-1.06-5.21-2.93-7.07c-1.859-1.861-4.43-2.93-7.07-2.93z"/></g></g></svg>