<svg id="Capa_1" enable-background="new 0 0 512 512" height="512" viewBox="0 0 512 512" width="512" xmlns="http://www.w3.org/2000/svg"><g><path d="m422.792 422c43.124 0 78.208-35.084 78.208-78.209 0-5.575-.601-11.164-1.785-16.613l-39.997-183.985c-3.142-14.451-11.213-27.521-22.728-36.801-11.513-9.281-26-14.392-40.788-14.392h-47.282c-5.657-15.949-20.062-27.787-37.42-29.716v-7.284c0-30.327-24.673-55-55-55s-55 24.673-55 55v7.284c-17.358 1.929-31.763 13.767-37.42 29.716h-47.282c-14.789 0-29.275 5.111-40.789 14.392-11.515 9.28-19.586 22.35-22.728 36.801l-39.996 183.985c-1.184 5.449-1.785 11.038-1.785 16.613 0 43.125 35.084 78.209 78.208 78.209h31.792v2.096c-23.057 6.548-40 27.777-40 52.904v20c0 8.284 6.716 15 15 15h320c8.284 0 15-6.716 15-15v-20c0-25.127-16.943-46.356-40-52.904v-2.096zm-191.792-367c0-13.785 11.215-25 25-25s25 11.215 25 25v7h-50zm-40 52c0-8.271 6.729-15 15-15h100c8.271 0 15 6.729 15 15v15h-130zm-8.402 45h146.804c53.552 58.432 57.123 147.511 9.374 210h-30.376c11.005-18.743 11.275-41.271.717-60.274l-40.005-72.01c-2.645-4.763-7.665-7.716-13.112-7.716s-10.467 2.953-13.112 7.716l-40.005 72.009c-10.558 19.004-10.288 41.533.717 60.275h-30.376c-47.749-62.489-44.178-151.569 9.374-210zm163.402 240c8.271 0 15 6.729 15 15v15h-210v-15c0-8.271 6.729-15 15-15zm-116.893-75.706 26.893-48.407 26.893 48.408c5.35 9.63 5.209 21.048-.378 30.542-5.586 9.495-15.498 15.163-26.515 15.163s-20.929-5.668-26.515-15.163c-5.587-9.494-5.728-20.912-.378-30.543zm-139.899 75.706c-26.582 0-48.208-21.626-48.208-48.209 0-3.436.37-6.881 1.101-10.24l39.997-183.985c3.471-15.973 17.855-27.566 34.2-27.566h44.702v9.165l-.506.552c-31.689 34.57-49.751 79.43-50.858 126.313-.936 39.636 10.303 78.397 31.941 111.204-8.257 5.358-14.654 13.342-17.997 22.766zm311.792 85v5h-290v-5c0-13.785 11.215-25 25-25h240c13.785 0 25 11.215 25 25zm-12.58-85c-3.342-9.424-9.74-17.408-17.997-22.766 21.638-32.806 32.877-71.567 31.941-111.204-1.106-46.884-19.168-91.743-50.858-126.314l-.506-.551v-9.165h44.702c16.345 0 30.729 11.593 34.201 27.565l39.997 183.985c.73 3.359 1.101 6.805 1.101 10.24-.001 26.584-21.627 48.21-48.209 48.21z"/></g></svg>